<svg xmlns="http://www.w3.org/2000/svg" version="1.1" xmlns:xlink="http://www.w3.org/1999/xlink" xmlns:svgjs="http://svgjs.dev/svgjs" width="2000" height="1250" viewBox="0 0 2000 1250"><g transform="matrix(1,0,0,1,0,0)"><svg viewBox="0 0 576 360" data-background-color="#ffffff" preserveAspectRatio="xMidYMid meet" height="1250" width="2000" xmlns="http://www.w3.org/2000/svg" xmlns:xlink="http://www.w3.org/1999/xlink"><g id="tight-bounds" transform="matrix(1,0,0,1,0,0)"><svg viewBox="0 0 576 360" height="360" width="576"><g><svg></svg></g><g><svg viewBox="0 0 576 360" height="360" width="576"><g><path xmlns="http://www.w3.org/2000/svg" d="M132.115 90l155.885-90 155.885 90v180l-155.885 90-155.885-90z" fill="#de4c36" fill-rule="nonzero" stroke="none" stroke-width="1" stroke-linecap="butt" stroke-linejoin="miter" stroke-miterlimit="10" stroke-dasharray="" stroke-dashoffset="0" font-family="none" font-weight="none" font-size="none" text-anchor="none" style="mix-blend-mode: normal" data-fill-palette-color="tertiary"></path></g><g transform="matrix(1,0,0,1,184.8549465240642,99)"><svg viewBox="0 0 206.29010695187165 162" height="162" width="206.29010695187165"><g><svg viewBox="0 0 206.29010695187165 162" height="162" width="206.29010695187165"><g><svg viewBox="0 0 206.29010695187165 162" height="162" width="206.29010695187165"><g><svg viewBox="0 0 206.29010695187165 162" height="162" width="206.29010695187165"><g id="textblocktransform"><svg viewBox="0 0 206.29010695187165 162" height="162" width="206.29010695187165" id="textblock"><g><svg viewBox="0 0 206.29010695187165 162" height="162" width="206.29010695187165"><g transform="matrix(1,0,0,1,0,0)"><svg width="206.29010695187165" viewBox="2.8600001335144043 -36.040000915527344 46.5 36.53000259399414" height="162" data-palette-color="#ffffff"><path d="M10.03-35.55L10.03-5.96 22.63-5.96 22.63 0 2.86 0 2.86-35.55 10.03-35.55ZM42.14-11.84L49.31-11.84Q49.05-5.76 45.9-2.64 42.75 0.49 37.01 0.49L37.01 0.49Q30.98 0.49 27.77-3.48 24.56-7.45 24.56-14.79L24.56-14.79 24.56-20.78Q24.56-28.1 27.88-32.07 31.2-36.04 37.11-36.04L37.11-36.04Q42.92-36.04 45.93-32.79 48.95-29.54 49.36-23.46L49.36-23.46 42.16-23.46Q42.06-27.22 41-28.65 39.94-30.08 37.11-30.08L37.11-30.08Q34.23-30.08 33.03-28.06 31.83-26.05 31.76-21.44L31.76-21.44 31.76-14.72Q31.76-9.42 32.94-7.45 34.13-5.47 37.01-5.47L37.01-5.47Q39.84-5.47 40.92-6.85 41.99-8.23 42.14-11.84L42.14-11.84Z" opacity="1" transform="matrix(1,0,0,1,0,0)" fill="#ffffff" class="undefined-text-0" data-fill-palette-color="quaternary" id="text-0"></path></svg></g></svg></g></svg></g></svg></g><g></g></svg></g></svg></g></svg></g></svg></g><defs></defs></svg><rect width="576" height="360" fill="none" stroke="none" visibility="hidden"></rect></g></svg></g></svg>